<svg id="svg" xmlns="http://www.w3.org/2000/svg" xmlns:xlink="http://www.w3.org/1999/xlink" width="400" height="400" viewBox="0, 0, 400,400"><g id="svgg"><path id="path0" d="M8.436 15.126 C 2.999 17.539,0.000 22.447,0.000 28.933 C 0.000 34.383,-4.914 27.431,63.082 118.164 L 124.410 200.000 63.082 281.836 C -5.480 373.323,-0.001 365.524,0.003 371.628 C 0.008 380.150,5.439 385.549,14.002 385.544 L 19.141 385.541 205.859 299.307 C 308.555 251.878,393.553 212.387,394.744 211.549 C 401.667 206.678,401.667 193.358,394.744 188.435 C 393.553 187.587,308.319 148.007,205.337 100.478 C 2.935 7.066,14.906 12.255,8.436 15.126 " stroke="none" fill="#ffffff" fill-rule="evenodd"></path></g></svg>
