<svg id="svg" xmlns="http://www.w3.org/2000/svg" xmlns:xlink="http://www.w3.org/1999/xlink" width="400" height="400" viewBox="0, 0, 400,400"><g id="svgg"><path id="path0" d="M295.703 104.354 C 288.091 108.313,284.738 117.130,287.918 124.830 C 288.731 126.797,298.250 136.876,317.407 156.055 L 345.695 184.375 178.190 184.375 L 10.684 184.375 7.316 186.349 C -2.632 192.179,-2.632 207.821,7.316 213.651 L 10.684 215.625 178.190 215.625 L 345.695 215.625 317.407 243.945 C 287.868 273.517,286.719 274.922,286.719 281.450 C 286.719 291.748,296.214 298.639,307.490 296.523 C 310.798 295.903,394.561 214.221,398.124 208.143 C 400.760 203.645,400.760 196.355,398.123 191.857 C 395.754 187.814,311.819 104.984,309.009 103.915 C 305.871 102.722,298.364 102.970,295.703 104.354 " stroke="none" fill="#000000" fill-rule="evenodd"></path></g></svg>
